<svg height="512pt" viewBox="0 -110 512.00035 512" width="512pt" xmlns="http://www.w3.org/2000/svg"><path d="m463.5 291.011719h-332.175781c-9.328125.003906-18.203125-4.023438-24.347657-11.042969l-99.023437-113.171875c-10.605469-12.214844-10.605469-30.367187 0-42.582031l99.023437-113.171875c6.144532-7.019531 15.019532-11.04687525 24.347657-11.042969h332.175781c26.785156 0 48.5 21.714844 48.5 48.503906v194.003906c0 26.789063-21.714844 48.503907-48.5 48.503907zm-332.175781-258.675781-99.023438 113.167968 99.023438 113.171875h332.175781c8.929688 0 16.167969-7.238281 16.167969-16.167969v-194.003906c0-8.929687-7.238281-16.167968-16.167969-16.167968zm0 0"/></svg>